<svg width="950" height="704" viewBox="0 0 950 704" fill="none" xmlns="http://www.w3.org/2000/svg">
<path d="M431.22 663.95L299.22 690.95L296.22 690.65L180.22 678.95V531.95L322.22 507.95L425.22 519.95L425.25 520.6L425.26 520.92L431.22 663.95Z" fill="#C4674D"/>
<path opacity="0.1" d="M431.22 663.95L299.22 690.95L296.22 690.65V539.95L425.25 520.6L431.22 663.95Z" fill="black"/>
<path opacity="0.05" d="M425.26 520.92L425.22 520.95L296.22 539.95L180.22 531.95L322.22 507.95L425.22 519.95L425.25 520.6L425.26 520.92Z" fill="black"/>
<path d="M576.22 669.95L444.22 696.95L441.22 696.65L325.22 684.95V537.95L467.22 513.95L570.22 525.95L570.25 526.6L570.26 526.92L576.22 669.95Z" fill="#3F3D56"/>
<path opacity="0.1" d="M576.22 669.95L444.22 696.95L441.22 696.65V545.95L570.25 526.6L576.22 669.95Z" fill="black"/>
<path opacity="0.05" d="M570.26 526.92L570.22 526.95L441.22 545.95L325.22 537.95L467.22 513.95L570.22 525.95L570.25 526.6L570.26 526.92Z" fill="black"/>
<path d="M485.22 525.95L353.22 552.95L350.22 552.65L234.22 540.95V393.95L376.22 369.95L479.22 381.95L479.25 382.6L479.26 382.92L485.22 525.95Z" fill="#3F3D56"/>
<path opacity="0.1" d="M485.22 525.95L353.22 552.95L350.22 552.65V401.95L479.25 382.6L485.22 525.95Z" fill="black"/>
<path opacity="0.05" d="M479.26 382.92L479.22 382.95L350.22 401.95L234.22 393.95L376.22 369.95L479.22 381.95L479.25 382.6L479.26 382.92Z" fill="black"/>
<path d="M560.22 532.11L491.33 546.21L489.76 546.05L429.22 539.94V463.22L503.33 450.69L557.09 456.96L557.11 457.3V457.46L560.22 532.11Z" fill="#3F3D56"/>
<path opacity="0.1" d="M560.22 532.11L491.33 546.21L489.76 546.05V467.4L557.11 457.3L560.22 532.11Z" fill="black"/>
<path opacity="0.05" d="M557.11 457.46L557.09 457.48L489.76 467.4L429.22 463.22L503.33 450.69L557.09 456.96L557.11 457.3V457.46Z" fill="black"/>
<path d="M375.22 383.11L306.33 397.2L304.76 397.05L244.22 390.94V314.22L318.33 301.69L372.09 307.96L372.11 308.3V308.46L375.22 383.11Z" fill="#3F3D56"/>
<path opacity="0.1" d="M375.22 383.11L306.33 397.2L304.76 397.05V318.4L372.11 308.3L375.22 383.11Z" fill="black"/>
<path opacity="0.05" d="M372.11 308.46L372.09 308.48L304.76 318.4L244.22 314.22L318.33 301.69L372.09 307.96L372.11 308.3V308.46Z" fill="black"/>
<path d="M496.22 380.11L427.33 394.2L425.76 394.05L365.22 387.94V311.22L439.33 298.69L493.09 304.96L493.11 305.3V305.46L496.22 380.11Z" fill="#C4674D"/>
<path opacity="0.1" d="M496.22 380.11L427.33 394.2L425.76 394.05V315.4L493.11 305.3L496.22 380.11Z" fill="black"/>
<path opacity="0.05" d="M493.11 305.46L493.09 305.48L425.76 315.4L365.22 311.22L439.33 298.69L493.09 304.96L493.11 305.3V305.46Z" fill="black"/>
<path d="M532.22 303.11L463.33 317.2L461.76 317.05L401.22 310.94V234.22L475.33 221.69L529.09 227.96L529.11 228.3V228.46L532.22 303.11Z" fill="#3F3D56"/>
<path opacity="0.1" d="M532.22 303.11L463.33 317.2L461.76 317.05V238.4L529.11 228.3L532.22 303.11Z" fill="black"/>
<path opacity="0.05" d="M529.11 228.46L529.09 228.48L461.76 238.4L401.22 234.22L475.33 221.69L529.09 227.96L529.11 228.3V228.46Z" fill="black"/>
<path d="M579.14 146.27C578.41 152.77 573.45 158.01 571.61 164.27C568.85 173.72 573.61 183.87 580.17 191.27C585.457 197.15 591.858 201.922 599.002 205.311C606.146 208.699 613.892 210.636 621.79 211.01C624.11 211.21 626.447 210.955 628.67 210.26C630.649 209.454 632.433 208.234 633.9 206.68C638.82 201.73 641.47 194.88 642.52 187.97C643.57 181.06 643.17 174.03 642.76 167.06C642.759 165.618 642.495 164.187 641.98 162.84C641.31 161.559 640.389 160.426 639.27 159.51C635.723 156.251 631.814 153.409 627.62 151.04C625.82 150.04 623.89 149.04 622.74 147.31C621.951 145.932 621.438 144.414 621.23 142.84L619.94 136.28C619.712 134.389 619.066 132.571 618.05 130.96C615.78 127.9 611.43 127.48 607.62 127.33L593.62 126.78C589.27 126.61 583.55 125.36 579.3 126.22C575.3 127.01 576.65 130.67 577.37 133.99C578.412 138.005 579.005 142.124 579.14 146.27V146.27Z" fill="#FFC0C6"/>
<path opacity="0.1" d="M579.14 146.27C578.41 152.77 573.45 158.01 571.61 164.27C568.85 173.72 573.61 183.87 580.17 191.27C585.457 197.15 591.858 201.922 599.002 205.311C606.146 208.699 613.892 210.636 621.79 211.01C624.11 211.21 626.447 210.955 628.67 210.26C630.649 209.454 632.433 208.234 633.9 206.68C638.82 201.73 641.47 194.88 642.52 187.97C643.57 181.06 643.17 174.03 642.76 167.06C642.759 165.618 642.495 164.187 641.98 162.84C641.31 161.559 640.389 160.426 639.27 159.51C635.723 156.251 631.814 153.409 627.62 151.04C625.82 150.04 623.89 149.04 622.74 147.31C621.951 145.932 621.438 144.414 621.23 142.84L619.94 136.28C619.712 134.389 619.066 132.571 618.05 130.96C615.78 127.9 611.43 127.48 607.62 127.33L593.62 126.78C589.27 126.61 583.55 125.36 579.3 126.22C575.3 127.01 576.65 130.67 577.37 133.99C578.412 138.005 579.005 142.124 579.14 146.27V146.27Z" fill="black"/>
<path d="M668.05 439.03L662.11 504.15C660.56 521.23 658.98 538.38 655.94 555.24C654.94 561.05 653.66 566.83 652.2 572.56C648.14 588.47 642.25 604.02 640.35 620.33C640.29 620.8 640.24 621.33 640.19 621.76C639.8 625.36 639.46 629 638.19 632.36C637.19 634.85 635.78 637.12 634.75 639.58C632.75 644.5 632.43 649.94 632.18 655.27C624.972 651.201 617.077 648.489 608.89 647.27C604.89 646.68 600.54 646.27 597.89 643.27C594.89 640.01 595.24 635.02 595.74 630.64C597.313 617.04 598.88 603.447 600.44 589.86C600.96 584.014 601.963 578.221 603.44 572.54C603.98 570.65 604.63 568.79 605.29 566.93C606.2 564.37 607.12 561.81 607.81 559.18C608.767 554.954 609.429 550.668 609.79 546.35C611.4 532.67 613.34 519.02 615.04 505.35L615.13 504.63C617.68 483.91 619.62 463.09 619.06 442.22C618.98 439.13 618.85 436.04 618.65 432.94C618.37 428.45 617.96 426.07 621.65 423.26C625.76 420.16 631.17 417.99 635.87 415.96C638.4 414.86 666.26 404.96 666.87 407.14C668.163 411.771 668.836 416.552 668.87 421.36C668.926 427.261 668.653 433.16 668.05 439.03V439.03Z" fill="#605D82"/>
<path opacity="0.1" d="M655.94 555.24C654.94 561.05 653.66 566.83 652.2 572.56C648.14 588.47 642.25 604.02 640.35 620.33C640.29 620.8 640.24 621.33 640.19 621.76C627.77 604.02 617.31 584.94 605.19 567.01C606.1 564.45 607.02 561.89 607.71 559.26C608.704 555.011 609.399 550.697 609.79 546.35C611.4 532.67 613.34 519.02 615.04 505.35L615.13 504.63C615.832 507.531 616.837 510.35 618.13 513.04C626.27 529.58 645.61 537.94 655.07 553.77C655.383 554.263 655.673 554.753 655.94 555.24Z" fill="black"/>
<path d="M555.16 409.82C555.57 423.08 557.69 436.23 559.81 449.33L564.18 476.33C566.57 491.13 569.07 506.22 576.07 519.47C581.31 529.39 588.85 537.85 595.68 546.74C612.46 568.6 625.07 593.37 640.98 615.87C645.61 622.41 652.22 629.49 660.11 628.12C665.29 627.23 669.05 622.91 673.11 619.59C677.91 615.67 683.69 612.8 687.47 607.88C691.25 602.96 691.99 594.8 686.87 591.3C685.12 590.11 682.99 589.66 681.01 588.9C673.08 585.9 667.94 578.14 664.68 570.3C661.42 562.46 659.43 554.05 655.08 546.76C645.62 530.93 626.27 522.57 618.13 506.02C613.57 496.76 613.13 486.02 612.79 475.75L611.9 449.44C611.8 446.56 611.73 443.57 612.9 440.94C616.01 433.94 625.41 433.28 633.03 432.39C641.671 431.381 650.043 428.741 657.7 424.61C662.09 422.24 666.37 419.22 668.7 414.82C670.84 410.82 671.13 406.11 671.38 401.57L674.02 353.88C674.25 349.78 674.45 345.53 673.02 341.69C669.39 332.03 657.19 328.87 646.88 329.33C627.7 330.19 610 338.44 591.88 344.02C587.39 345.4 582.88 346.64 578.25 347.57C574.25 348.38 569.25 348.05 565.41 349.35C558.53 351.67 558.7 366.73 557.73 372.97C555.729 385.147 554.868 397.483 555.16 409.82V409.82Z" fill="#605D82"/>
<path d="M657.51 630.14C659.2 631.85 659.75 634.35 660.19 636.71C662.634 649.807 663.906 663.097 663.99 676.42C663.881 677.663 664.127 678.912 664.7 680.02C665.179 680.677 665.825 681.195 666.57 681.52C671.46 683.85 677.13 680.6 681.21 677.03C688.76 670.42 695.15 661.54 695.58 651.51C695.69 648.93 695.4 646.32 695.85 643.77C696.51 639.99 698.72 636.7 700.66 633.4C703.979 627.775 706.663 621.798 708.66 615.58C709.4 613.24 709.9 610.3 708.06 608.67C707.416 608.158 706.679 607.774 705.89 607.54L683.79 599.34C681.87 598.63 677.11 610.86 676.36 612.2C674.51 615.47 672.67 617.32 668.96 618.08C665.25 618.84 660.67 617.74 657.13 619.63C651.13 622.82 654.12 626.73 657.51 630.14Z" fill="#535070"/>
<path d="M623.43 637.69C623.02 636.873 622.449 636.149 621.75 635.56C620.729 634.91 619.566 634.515 618.36 634.41C614.16 633.69 609.18 633.22 606.27 636.35C603.55 639.28 604.02 644.05 601.75 647.35C601.03 648.35 600.05 649.25 599.43 650.35C598.659 652.034 598.316 653.882 598.43 655.73C598.31 660.82 598.19 665.93 598.55 671.01C598.84 675.27 599.55 679.74 602.22 683.08C606.5 688.44 614.22 689.21 621.06 689.55L626.61 689.84C628.136 690.019 629.683 689.876 631.15 689.42C632.059 689.002 632.875 688.405 633.549 687.664C634.222 686.924 634.74 686.055 635.07 685.11C637.96 677.93 633.39 670.2 630.57 663C627.32 654.71 627.9 645.52 623.43 637.69Z" fill="#535070"/>
<path d="M577.54 109.62C577.469 108.892 577.575 108.158 577.85 107.48C578.66 106.05 580.78 106.48 582.38 106.84C588.81 108.46 595.59 106.99 602.22 107.37C608.85 107.75 616.31 111.06 617.64 117.56C622.45 114.156 626.595 109.899 629.87 105C631.71 102.25 633.31 99.1 633.06 95.8C632.7 91.04 628.71 87.48 625.06 84.46L614.06 75.46C612.611 74.1308 610.939 73.0679 609.12 72.32C606.58 71.45 603.8 71.87 601.12 71.87C593.12 71.87 584.54 68.22 577.41 71.87C574.41 73.4 572.18 76.03 570.02 78.59L560.19 90.23C559.446 90.972 558.902 91.8907 558.61 92.9C558.33 94.32 559.06 95.72 559.32 97.15C559.78 99.75 558.66 102.53 559.52 105.03C560.95 109.17 565.99 109.76 569.07 112.14C570.21 113.02 572.01 116.03 573.38 115.99C575.79 115.94 577.47 111.54 577.54 109.62Z" fill="#3F3D56"/>
<path d="M594.22 143.95C611.617 143.95 625.72 129.847 625.72 112.45C625.72 95.053 611.617 80.95 594.22 80.95C576.823 80.95 562.72 95.053 562.72 112.45C562.72 129.847 576.823 143.95 594.22 143.95Z" fill="#FFC0C6"/>
<path d="M601.6 181.38C600.533 178.327 598.524 175.692 595.862 173.855C593.2 172.018 590.023 171.074 586.79 171.16C585.863 171.337 584.903 171.214 584.05 170.81C583.566 170.441 583.179 169.961 582.92 169.41C581.01 165.962 579.472 162.322 578.33 158.55C577.83 156.88 577.14 154.91 575.45 154.48C574.09 154.13 572.7 155.01 571.79 156.08C570.983 157.228 570.109 158.327 569.17 159.37C565.17 162.91 558.17 159.68 553.98 162.93C553.29 163.46 552.72 164.14 551.98 164.63C551.26 165.069 550.483 165.405 549.67 165.63C541.536 168.276 533.563 171.391 525.79 174.96C528.59 191.8 531.45 208.96 538.01 224.71C541.13 232.21 544.66 239.56 547.16 247.29C552.7 264.42 552.94 282.75 553.01 300.76C553.01 313.08 553.01 325.66 549.01 337.32C548.11 339.96 547.01 342.58 546.76 345.32C546.51 348.06 547.33 351.16 549.58 352.8C550.883 353.659 552.376 354.185 553.93 354.33C560.84 355.33 567.8 353.51 574.6 351.93C592.83 347.71 611.43 345.29 629.98 342.93L661.08 338.93C663.311 338.774 665.494 338.208 667.52 337.26C673.21 334.15 673.75 325.59 670.21 320.15C668.52 317.54 666.13 315.4 664.7 312.64C663.27 309.88 663.16 306 665.61 304.09C670.61 300.19 669.11 292.96 669.35 286.64C670.017 268.96 669.927 251.293 669.08 233.64C668.825 229.979 668.765 226.307 668.9 222.64C669.25 216.42 670.79 210.33 672.33 204.28L681.78 167.08C679.31 163.18 674.58 160.7 670.11 159.58C665.64 158.46 660.97 158.13 656.56 156.76C647.56 153.96 639.48 146.86 630.05 147.52C629.335 147.533 628.631 147.703 627.99 148.02C625.87 149.23 626.2 152.29 626.07 154.73C625.77 160.14 621.79 164.65 617.41 167.82C613.03 170.99 608.01 173.29 603.98 176.9C603.28 177.428 602.704 178.102 602.293 178.876C601.882 179.65 601.645 180.505 601.6 181.38V181.38Z" fill="#3F3D56"/>
<path d="M476.79 216.67C474.704 218.026 472.486 219.169 470.17 220.08C467.97 220.95 465.62 221.64 463.82 223.16C462.929 223.933 462.181 224.857 461.61 225.89C460.544 227.781 460.006 229.923 460.05 232.093C460.094 234.263 460.72 236.382 461.862 238.228C463.004 240.073 464.62 241.579 466.543 242.587C468.465 243.596 470.622 244.07 472.79 243.96C475.68 243.81 478.41 242.64 481.06 241.49L503.28 231.82C507.04 230.19 511.1 228.29 512.88 224.59C513.084 224.244 513.162 223.837 513.1 223.44C512.928 223.004 512.6 222.648 512.18 222.44C507.173 219.182 502.793 215.05 499.25 210.24C498.34 209 497.25 206.08 495.93 205.33C491.23 202.72 480.56 214.23 476.79 216.67Z" fill="#FFC0C6"/>
<path d="M714.31 208.82L722.5 218.18C724.26 220.18 726.02 222.18 727.62 224.34C731.557 229.763 734.715 235.711 737 242.01C738.78 246.68 740.26 251.66 739.64 256.62C739.224 259.163 738.537 261.654 737.59 264.05C736.089 268.657 734.227 273.137 732.02 277.45C730.177 280.723 728.094 283.854 725.79 286.82C719.446 295.226 712.505 303.163 705.02 310.57C702.22 313.34 701.02 317.83 699.83 321.57C697.58 328.48 692.23 333.87 687.06 338.97C685.397 340.728 683.557 342.31 681.57 343.69C678.593 345.611 675.112 346.6 671.57 346.53C670.025 346.539 668.495 346.222 667.08 345.6C663.54 343.92 661.74 339.83 661.37 335.93C661.043 332.386 661.636 328.818 663.09 325.57C667.79 315.16 679.86 310.65 688.39 303.05C693.39 298.6 697.22 293 701 287.47C703.56 284.013 705.699 280.264 707.37 276.3C709.27 271.21 708.53 265.19 710.2 260.03C710.9 257.84 712.2 255.87 712.91 253.7C713.62 251.53 713.86 248.96 712.53 247.09C711.533 245.895 710.26 244.961 708.82 244.37C703.37 241.61 697.27 238.05 696.23 232.02C695.813 228.681 696.686 225.308 698.67 222.59C700.643 219.907 702.952 217.487 705.54 215.39C707.91 213.25 711.92 210.88 714.31 208.82Z" fill="#FFC0C6"/>
<path d="M471.53 229.73C470.09 226.81 468.28 223.83 465.36 222.38C463.939 221.767 462.408 221.451 460.86 221.451C459.312 221.451 457.781 221.767 456.36 222.38C453.53 223.603 450.88 225.205 448.48 227.14L441.42 232.35C439.82 233.4 438.404 234.708 437.23 236.22C436.11 238.055 435.369 240.095 435.05 242.22C434.05 247.09 433.24 252.1 433.94 257.03C435.06 265.03 439.86 271.95 445.14 278.03C448.44 281.81 452.52 285.63 457.54 285.8C459.71 285.87 462.12 285.01 463.02 283.04C463.334 282.257 463.5 281.423 463.51 280.58C464.05 271.7 460.87 263.03 457.17 254.94C456.17 252.74 455.09 250.46 455.17 248.05C455.139 247.641 455.245 247.233 455.47 246.89C455.787 246.557 456.213 246.348 456.67 246.3C461.74 245.3 470.48 249.24 474.03 243.61C476.33 239.89 473.17 233.04 471.53 229.73Z" fill="#FFC0C6"/>
<path d="M575.88 99.71C575.817 98.9814 575.927 98.2483 576.2 97.57C577.01 96.13 579.13 96.57 580.73 96.93C587.16 98.55 593.94 97.08 600.57 97.46C607.2 97.84 614.65 101.15 615.99 107.65C620.795 104.24 624.939 99.9844 628.22 95.09C630.06 92.33 631.66 89.18 631.41 85.88C631.05 81.12 627.05 77.56 623.41 74.55L612.41 65.55C610.964 64.221 609.295 63.1579 607.48 62.41C604.93 61.54 602.16 61.96 599.48 61.96C591.48 61.96 582.9 58.31 575.77 61.96C572.77 63.49 570.54 66.12 568.38 68.68L558.54 80.32C557.8 81.0636 557.26 81.982 556.97 82.99C556.69 84.41 557.42 85.81 557.68 87.24C558.14 89.84 557.02 92.62 557.88 95.11C559.31 99.26 564.35 99.85 567.43 102.23C568.57 103.11 570.37 106.12 571.74 106.08C574.11 106.03 575.79 101.63 575.88 99.71Z" fill="#3F3D56"/>
<path d="M508.98 186.03C507.71 186.854 506.594 187.893 505.68 189.1C504.53 190.85 504.29 193.1 503.3 194.9C501.18 198.84 496.21 200.25 493.12 203.48C492.619 203.922 492.269 204.509 492.12 205.16C492.101 206.04 492.395 206.897 492.95 207.58L507.89 231.06C512.89 231.5 517.63 228.38 522.61 228.8C524.46 228.95 526.37 229.59 528.15 229.04C529.422 228.473 530.615 227.744 531.7 226.87C534.7 224.99 538.62 224.77 541.11 222.3C543.6 219.83 543.81 216.2 543.78 212.83C543.825 209.905 543.526 206.985 542.89 204.13C540.69 195.13 533.8 188.19 529.48 180.21C527.37 176.32 526.23 174.05 521.78 176.72C517.33 179.39 513.19 182.95 508.98 186.03Z" fill="#3F3D56"/>
<path d="M690.39 174.16C693.198 175.983 695.73 178.199 697.91 180.74C700.18 183.67 701.47 187.27 703.66 190.27C705.85 193.27 708.66 195.43 711.06 198.11C714.71 202.17 717.18 207.11 719.6 212.02C713.676 219.728 707.22 227.012 700.28 233.82C699.506 234.73 698.485 235.397 697.34 235.74C696.564 235.823 695.779 235.713 695.057 235.418C694.334 235.123 693.696 234.653 693.2 234.05C692.12 232.93 691.36 231.53 690.33 230.36C687.903 227.857 684.669 226.295 681.2 225.95C677.76 225.615 674.298 225.565 670.85 225.8C670.093 225.89 669.326 225.761 668.64 225.43C668.129 225.079 667.716 224.604 667.44 224.05C663.44 217.17 664.69 208.53 666.12 200.67L669.39 182.67C669.867 179.233 670.785 175.872 672.12 172.67C673.36 170.02 676.12 165.52 679.54 166.32C682.96 167.12 687.5 172.08 690.39 174.16Z" fill="#3F3D56"/>
<path d="M405.22 306.11L336.33 320.2L334.76 320.05L274.22 313.94V237.22L348.33 224.69L402.09 230.96L402.11 231.3V231.46L405.22 306.11Z" fill="#C4674D"/>
<path opacity="0.1" d="M405.22 306.11L336.33 320.2L334.76 320.05V241.4L402.11 231.3L405.22 306.11Z" fill="black"/>
<path opacity="0.05" d="M402.11 231.46L402.09 231.48L334.76 241.4L274.22 237.22L348.33 224.69L402.09 230.96L402.11 231.3V231.46Z" fill="black"/>
<path d="M441.22 230.11L372.33 244.21L370.76 244.05L310.22 237.94V161.22L384.33 148.69L438.09 154.96L438.11 155.3V155.46L441.22 230.11Z" fill="#3F3D56"/>
<path opacity="0.1" d="M441.22 230.11L372.33 244.21L370.76 244.05V165.4L438.11 155.3L441.22 230.11Z" fill="black"/>
<path opacity="0.05" d="M438.11 155.46L438.09 155.48L370.76 165.4L310.22 161.22L384.33 148.69L438.09 154.96L438.11 155.3V155.46Z" fill="black"/>
</svg>
